<svg width="16" height="16" viewBox="0 0 16 16" fill="none" xmlns="http://www.w3.org/2000/svg">
<path fill-rule="evenodd" clip-rule="evenodd" d="M11.6815 4.93071V5.95294C12.8297 6.31135 13.6663 7.3508 13.6663 8.59231V11.8836C13.6663 13.4206 12.3921 14.6667 10.8212 14.6667H5.17887C3.60725 14.6667 2.33301 13.4206 2.33301 11.8836V8.59231C2.33301 7.3508 3.17031 6.31135 4.31787 5.95294V4.93071C4.32464 2.94323 5.97078 1.33337 7.98951 1.33337C10.0353 1.33337 11.6815 2.94323 11.6815 4.93071ZM8.00328 2.49272C9.37846 2.49272 10.4962 3.58583 10.4962 4.93069V5.80916H5.50358V4.91744C5.51035 3.5792 6.62811 2.49272 8.00328 2.49272ZM8.59272 10.97C8.59272 11.2946 8.32853 11.553 7.99659 11.553C7.67142 11.553 7.40723 11.2946 7.40723 10.97V9.49926C7.40723 9.18126 7.67142 8.92289 7.99659 8.92289C8.32853 8.92289 8.59272 9.18126 8.59272 9.49926V10.97Z" fill="#718096"/>
</svg>
